<svg version="1.1" id="Layer_1" xmlns="http://www.w3.org/2000/svg" xmlns:xlink="http://www.w3.org/1999/xlink" x="0px" y="0px"
	 width="100%" viewBox="0 0 624 456" enable-background="new 0 0 624 456" xml:space="preserve">
<path opacity="1.000000" stroke="none" 
	d="
M366.195068,421.341553 
	C361.488220,422.224518 357.080841,422.822021 352.162781,423.488739 
	C349.147614,431.862000 343.434174,436.080841 333.161835,435.925934 
	C326.359283,435.823364 319.767487,435.902893 313.908844,440.001160 
	C304.556519,446.543335 295.591492,444.841187 287.027588,438.441437 
	C284.685455,436.691162 282.849548,435.937469 279.608215,436.761108 
	C275.234192,437.872589 270.284027,437.548462 266.665710,434.049469 
	C261.870728,429.412628 256.149933,427.731140 249.710480,426.800415 
	C246.480942,426.333618 243.265732,424.047455 240.588989,421.903656 
	C237.098068,419.107788 234.324539,415.429657 230.911942,412.518463 
	C227.880417,409.932251 224.698517,407.008453 221.058456,405.745605 
	C210.015900,401.914673 206.006241,392.905029 203.084595,382.991608 
	C201.662521,378.166351 198.325378,375.050995 192.955429,375.026764 
	C176.618973,374.953064 160.249115,374.342804 143.953064,375.157593 
	C120.810844,376.314667 97.722786,378.554840 74.000000,380.379242 
	C74.000000,386.867950 73.977928,394.472900 74.004433,402.077637 
	C74.066200,419.795288 61.058804,432.722229 43.613235,431.882172 
	C27.794098,431.120422 16.097467,420.006561 16.078016,403.822876 
	C15.933988,283.993683 15.994164,164.164200 16.008072,44.334824 
	C16.009645,30.775507 23.457119,22.122593 32.490314,18.410145 
	C44.202541,13.596675 55.892708,14.464083 65.387062,23.981113 
	C82.996521,41.632656 100.375259,59.514690 117.817162,77.332962 
	C130.479706,90.268730 143.089920,103.255722 155.722153,116.221153 
	C168.470657,129.305954 181.247665,142.363235 193.941010,155.501343 
	C196.640579,158.295517 199.032791,161.386642 201.751282,164.556259 
	C220.135880,140.149338 238.200790,116.299324 256.116730,92.337914 
	C269.198730,74.841553 282.019104,57.149704 295.076752,39.634930 
	C307.541687,22.915157 331.242737,23.088903 343.306335,39.550308 
	C354.729065,55.137234 367.023712,70.083282 378.844727,85.380844 
	C387.967896,97.187035 396.921295,109.124229 406.005402,120.960785 
	C415.750366,133.658478 425.559937,146.306656 435.537567,159.230621 
	C450.455353,142.876923 465.103729,126.794083 479.783722,110.740120 
	C484.352936,105.743279 488.986694,100.804878 493.627441,95.874115 
	C504.735565,84.071716 515.931885,72.351555 526.967773,60.482162 
	C537.965149,48.654198 548.841553,36.713093 559.714172,24.769840 
	C571.866455,11.420873 596.144348,12.537212 606.502197,30.231247 
	C608.676086,33.944824 609.852783,38.807018 609.859131,43.142300 
	C610.034851,163.638077 610.064392,284.134247 609.891785,404.630035 
	C609.876038,415.640991 604.242615,424.183960 594.131836,428.906342 
	C583.762573,433.749451 573.495667,433.255188 563.913330,426.428101 
	C555.255066,420.259369 551.952759,411.564331 551.995789,401.270569 
	C552.019287,395.641449 552.000000,390.012085 552.000000,384.088257 
	C505.302521,381.179901 459.614716,373.612610 413.844238,363.549805 
	C417.971283,377.077179 412.462128,382.588623 394.084656,384.358185 
	C394.683350,390.161163 396.570160,395.866730 392.312775,401.522186 
	C387.974884,407.284515 382.154846,406.914825 376.318573,407.110962 
	C375.581451,415.866302 373.000977,419.461853 366.195068,421.341553 
M548.671509,122.878838 
	C537.752380,134.776855 526.850647,146.690903 515.908508,158.567734 
	C507.409271,167.793030 498.920441,177.029175 490.318024,186.157822 
	C477.717163,199.529465 464.916229,212.713760 452.400177,226.163620 
	C444.689301,234.449768 427.563965,234.552536 418.845245,229.655716 
	C410.367249,224.894043 406.225555,216.618729 400.523010,209.717346 
	C389.269989,196.098709 378.908966,181.742630 368.191498,167.682053 
	C358.656342,155.172531 349.182953,142.615616 339.596466,130.145599 
	C333.068726,121.654358 326.393066,113.276810 319.587494,104.598427 
	C317.505310,107.367172 315.743195,109.693970 313.998077,112.033470 
	C300.826202,129.691620 287.662598,147.355927 274.486633,165.011032 
	C261.990540,181.755157 249.528015,198.524689 236.954330,215.210419 
	C232.742828,220.799194 229.021179,227.136505 223.705154,231.437927 
	C210.961075,241.749710 194.502853,240.137924 182.903442,228.374344 
	C169.608749,214.891525 156.416824,201.306900 143.239273,187.709305 
	C138.643311,182.966827 134.319519,177.959854 129.705444,173.235764 
	C112.052841,155.162247 94.338562,137.148926 76.610962,119.148933 
	C76.047829,118.577148 75.088272,118.395798 74.212952,117.985275 
	C74.212952,166.874069 74.212952,215.335709 74.212952,263.678253 
	C85.480164,265.476318 96.559517,267.029327 107.552887,269.050140 
	C123.271004,271.939453 138.971100,274.961761 154.596222,278.312683 
	C171.650116,281.970032 188.301270,287.805634 206.282394,285.154694 
	C212.807129,284.192780 219.597290,285.135132 226.256149,284.908875 
	C228.010483,284.849243 229.782990,283.789337 231.450195,282.987213 
	C236.557281,280.530182 238.499680,275.923920 240.108902,270.809998 
	C242.839798,262.131561 247.749924,255.366989 257.037445,252.352585 
	C265.257263,249.684738 273.189514,246.141953 281.365570,243.324402 
	C286.488831,241.558853 291.792664,240.267899 297.079285,239.038376 
	C303.732971,237.490906 308.760742,242.093231 314.532684,243.948044 
	C327.497162,248.114166 340.728851,251.511185 353.517517,256.143982 
	C365.865204,260.617004 378.509521,261.976929 391.391296,261.934845 
	C405.311218,261.889374 419.235840,261.494324 433.146179,260.942993 
	C442.328125,260.579071 451.525177,259.988220 460.650146,258.933746 
	C475.667847,257.198303 490.718903,255.494095 505.595978,252.870010 
	C521.202820,250.117188 536.621338,246.297134 551.598511,243.056808 
	C551.598511,201.786316 551.598511,161.433899 551.598511,120.439133 
	C550.404541,121.340607 549.784729,121.808617 548.671509,122.878838 
M360.643341,359.968170 
	C370.699829,365.590912 380.286194,371.983215 392.166870,373.851807 
	C397.463989,374.684937 401.852631,374.917664 405.828644,371.391357 
	C405.049225,366.531372 403.430145,362.459961 397.700378,361.887146 
	C396.801208,361.797241 395.915039,361.133301 395.110718,360.601807 
	C361.639435,338.484314 328.036011,316.561676 294.809387,294.082184 
	C285.803558,287.989288 280.278778,289.563782 273.145599,294.298981 
	C264.580688,299.984589 256.154785,305.984406 247.126877,310.841034 
	C236.024490,316.813629 225.730682,310.354492 224.889481,297.824707 
	C224.800491,296.499298 223.292450,294.298767 222.253479,294.181519 
	C218.473099,293.754944 214.611435,294.102448 210.782013,294.047089 
	C199.497147,293.884033 188.060379,294.758026 176.966248,293.204224 
	C162.170105,291.131927 147.659515,287.064636 132.990738,284.025848 
	C119.872620,281.308350 106.730827,278.688477 93.550591,276.294830 
	C87.221275,275.145386 80.779091,274.617462 74.223740,273.787262 
	C74.223740,306.191467 74.223740,337.940338 74.223740,369.000000 
	C81.834534,369.000000 89.207901,369.001801 96.581268,368.999390 
	C101.913445,368.997650 107.268875,369.310669 112.573448,368.925598 
	C128.586670,367.763153 144.563950,366.056610 160.587448,365.102997 
	C170.051971,364.539703 179.578400,364.923737 189.074875,365.045807 
	C191.976593,365.083130 195.103729,365.081329 197.719620,366.122498 
	C202.776596,368.135254 207.405121,369.446350 212.535645,366.164764 
	C213.800751,365.355560 216.431717,366.107117 218.195862,366.773590 
	C221.758118,368.119354 225.156479,369.898895 228.754211,371.560394 
	C240.597153,359.772278 247.670135,359.538574 260.645905,370.792969 
	C268.229980,363.408691 272.374390,362.552612 280.519104,365.854645 
	C288.801300,369.212402 291.093994,376.029480 291.258179,384.095978 
	C300.449799,381.820343 307.806763,383.907227 310.739410,390.863739 
	C312.784576,395.715088 316.069519,398.331024 320.158325,400.629517 
	C324.078613,402.833221 328.432953,404.422821 331.982300,407.097443 
	C340.874603,413.798309 350.972015,413.445862 361.174316,412.954529 
	C362.244598,412.902954 363.536987,412.532013 364.275757,411.833038 
	C365.114166,411.039795 365.825226,409.722443 365.860077,408.610016 
	C365.882355,407.899353 364.708649,406.890656 363.848541,406.454010 
	C356.701202,402.825470 349.128876,399.885590 342.404327,395.606995 
	C331.785828,388.850800 321.685730,381.272614 311.460785,373.910950 
	C309.228668,372.303833 307.693542,370.293854 310.124329,367.286102 
	C312.579346,364.248383 315.400696,364.295380 317.819855,366.415619 
	C328.462219,375.742981 340.126984,383.557343 352.648041,390.024475 
	C359.402161,393.512939 365.528961,399.395172 374.297119,397.068481 
	C375.445312,396.763794 376.843842,397.564178 378.119873,397.537598 
	C379.609314,397.506622 381.456451,397.597076 382.489746,396.790833 
	C383.966644,395.638306 386.160156,393.112549 385.753815,392.233093 
	C383.955109,388.340179 384.341644,383.392303 379.510376,380.823792 
	C368.181793,374.800903 356.803894,368.773163 346.018311,361.855042 
	C336.091064,355.487488 326.839050,348.049225 317.446564,340.877045 
	C314.661133,338.750031 313.797668,335.417053 316.792480,332.947144 
	C319.268036,330.905518 322.094208,331.579590 324.639832,334.029755 
	C327.673737,336.949921 331.020569,339.596710 334.470154,342.023071 
	C342.917542,347.964905 351.501984,353.711914 360.643341,359.968170 
M272.581177,257.039337 
	C268.247040,258.692719 263.578766,259.796539 259.680450,262.166748 
	C256.330475,264.203583 253.179596,267.274445 251.150894,270.621582 
	C247.612808,276.459045 247.133728,284.028717 241.040482,288.496765 
	C239.205246,289.842499 237.312531,291.187286 235.768005,292.834320 
	C233.290451,295.476288 233.087769,298.833008 235.824493,301.016327 
	C237.387314,302.263123 240.954422,302.798767 242.583069,301.859070 
	C250.910995,297.053925 258.980499,291.782684 266.990540,286.449341 
	C277.244476,279.621887 287.188751,277.110077 297.178864,283.725586 
	C325.260925,302.321655 352.991882,321.465912 381.434204,339.489960 
	C391.272430,345.724487 399.690460,355.751160 413.673828,354.139801 
	C418.872375,353.540771 424.419067,355.956268 429.806152,357.001465 
	C442.960205,359.553589 456.077515,362.317993 469.278259,364.599884 
	C481.266937,366.672272 493.331421,368.330322 505.391266,369.957794 
	C512.348755,370.896698 519.360901,371.436127 526.352539,372.113831 
	C534.771790,372.929901 543.195312,373.701935 551.812012,374.511383 
	C551.812012,333.421997 551.812012,293.330505 551.812012,253.091064 
	C550.658142,253.091064 549.623413,252.861023 548.734863,253.124298 
	C517.049805,262.513000 484.529388,267.224762 451.712433,269.882843 
	C435.267120,271.214874 418.726166,271.419800 402.222229,271.933868 
	C398.485107,272.050262 394.685913,270.824860 390.977203,271.088318 
	C375.221039,272.207611 360.169342,269.191406 345.504852,263.828247 
	C330.636200,258.390381 314.578461,256.420654 300.592316,248.341949 
	C299.249939,247.566559 296.872681,247.793091 295.278442,248.378555 
	C287.920563,251.080566 280.669861,254.074371 272.581177,257.039337 
M271.224640,374.243988 
	C266.888031,379.443970 261.898376,384.195557 260.792480,391.431396 
	C260.488953,393.417389 259.171906,395.239319 258.380402,397.161438 
	C254.457443,406.687775 257.122955,415.405853 265.505341,420.975494 
	C268.508423,422.970917 271.338806,425.226227 273.516937,426.825958 
	C274.260712,419.665924 274.589417,412.600922 275.825653,405.698486 
	C277.060608,398.803131 279.291473,392.091431 280.924347,385.260620 
	C282.552368,378.450073 279.143616,374.264587 271.224640,374.243988 
M287.629974,427.958160 
	C290.066406,429.123138 292.657043,430.048340 294.910553,431.497742 
	C301.883453,435.982422 302.223328,436.043213 309.280670,430.604340 
	C302.755280,425.785522 301.276886,419.035919 301.988342,411.467712 
	C302.386475,407.232300 302.859467,402.989563 302.942230,398.743164 
	C303.015869,394.964050 299.091125,391.558502 296.175934,393.169037 
	C292.553741,395.170135 288.024323,396.600250 286.878662,401.588531 
	C285.661438,406.888458 283.691498,412.101532 283.219452,417.455627 
	C282.917236,420.883636 282.366669,425.436401 287.629974,427.958160 
M243.246033,372.969482 
	C241.622360,374.022461 239.730423,374.816620 238.421478,376.173248 
	C232.789261,382.010681 232.649185,389.880188 231.033569,397.184570 
	C230.863525,397.953400 230.817322,399.170410 231.265640,399.590698 
	C236.333023,404.341034 241.508224,408.976379 247.582291,414.483704 
	C245.251999,403.637726 248.913361,394.888855 251.980911,385.976929 
	C254.760132,377.902679 252.366653,374.149719 243.246033,372.969482 
M335.584442,419.963287 
	C327.853088,415.973785 320.121765,411.984253 312.417664,408.008820 
	C311.180023,415.607025 311.179657,421.997955 319.851807,425.111359 
	C327.832581,427.976562 334.979523,427.204865 342.574585,423.010895 
	C340.075226,421.812592 338.222260,420.924164 335.584442,419.963287 
M217.037491,391.384949 
	C218.350632,392.414093 219.663773,393.443237 221.189194,394.638733 
	C221.920837,392.765961 222.492172,391.638611 222.806137,390.443665 
	C224.430359,384.261810 222.048340,378.491486 217.019974,376.524841 
	C214.677673,375.608765 211.588654,375.398773 212.224014,378.769318 
	C212.996399,382.866943 215.314407,386.673218 217.037491,391.384949 
z"/>
</svg>